<svg width="128" height="105" xmlns="http://www.w3.org/2000/svg"><defs><radialGradient cx="-8.152%" cy="-19.257%" fx="-8.152%" fy="-19.257%" r="100%" gradientTransform="matrix(1 0 0 .9875 0 -.002)" id="b"><stop stop-color="#FFA659" offset="0%"/><stop stop-color="#FF6D6D" offset="100%"/></radialGradient><filter x="-37.5%" y="-78.9%" width="175%" height="257.9%" filterUnits="objectBoundingBox" id="a"><feGaussianBlur stdDeviation="10" in="SourceGraphic"/></filter></defs><g transform="translate(24)" fill="none" fill-rule="evenodd"><rect fill="#FF8963" opacity=".848" filter="url(#a)" y="42" width="80" height="38" rx="19"/><rect fill="url(#b)" fill-rule="nonzero" width="80" height="81.013" rx="32"/><path d="M50.25 49.672c-1.24 0-2.25-.994-2.25-2.215 0-1.221 1.01-2.215 2.25-2.215s2.25.994 2.25 2.215c0 1.221-1.01 2.215-2.25 2.215M46.5 29a1.5 1.5 0 011.285.716l4.064 6.667H58.5c.83 0 1.5.661 1.5 1.476v8.86c0 .815-.67 1.476-1.5 1.476h-3.077c-.367 2.499-2.536 4.43-5.173 4.43s-4.806-1.931-5.173-4.43h-7.654c-.367 2.499-2.536 4.43-5.173 4.43s-4.806-1.931-5.174-4.43H25.5c-.83 0-1.5-.661-1.5-1.476v-7.383c0-.29.088-.577.252-.82l6-8.859A1.51 1.51 0 0131.5 29zM32.25 45.242c-1.24 0-2.25.994-2.25 2.215 0 1.221 1.01 2.215 2.25 2.215s2.25-.994 2.25-2.215c0-1.221-1.01-2.215-2.25-2.215zm13.438-13.289H32.233L28.5 37.86h20.46l-3.272-5.906z" fill="#FFF"/></g></svg>