<svg width="128" height="105" xmlns="http://www.w3.org/2000/svg"><defs><radialGradient cx="-8.152%" cy="-19.257%" fx="-8.152%" fy="-19.257%" r="100%" id="b"><stop stop-color="#FFA659" offset="0%"/><stop stop-color="#FF6D6D" offset="100%"/></radialGradient><filter x="-37.5%" y="-78.9%" width="175%" height="257.9%" filterUnits="objectBoundingBox" id="a"><feGaussianBlur stdDeviation="10" in="SourceGraphic"/></filter></defs><g transform="translate(24)" fill="none" fill-rule="evenodd"><rect fill="#FF8963" opacity=".848" filter="url(#a)" y="42" width="80" height="38" rx="19"/><rect fill="url(#b)" fill-rule="nonzero" width="80" height="80" rx="32"/><path d="M55.216 46.565C52.649 52.124 47.03 56 40.507 56s-12.143-3.876-14.71-9.435zM26.05 25.395a1.353 1.353 0 011.909 0l6.913 6.902a8.044 8.044 0 012.934-.558c4.005 0 7.332 2.92 7.978 6.739h9.574c.745 0 1.35.604 1.35 1.348 0 1.399-.199 2.748-.533 4.043H24.838a16.048 16.048 0 01-.533-4.043c0-.744.603-1.348 1.35-1.348h4.172a8.01 8.01 0 01.625-2.023l-5.3-2.117a1.347 1.347 0 111.004-2.502l5.864 2.34c.15-.154.312-.3.475-.441L26.051 27.3a1.345 1.345 0 010-1.906zm18.506.953c5.212 0 9.451 4.232 9.451 9.434h-6.193a10.754 10.754 0 00-9.883-6.73 9.458 9.458 0 016.625-2.704z" fill="#FFF"/></g></svg>