<svg width="128" height="105" xmlns="http://www.w3.org/2000/svg"><defs><radialGradient cx="-8.152%" cy="-19.257%" fx="-8.152%" fy="-19.257%" r="100%" id="b"><stop stop-color="#FFA659" offset="0%"/><stop stop-color="#FF6D6D" offset="100%"/></radialGradient><filter x="-37.5%" y="-78.9%" width="175%" height="257.9%" filterUnits="objectBoundingBox" id="a"><feGaussianBlur stdDeviation="10" in="SourceGraphic"/></filter></defs><g transform="translate(24)" fill="none" fill-rule="evenodd"><rect fill="#FF8963" opacity=".848" filter="url(#a)" y="42" width="80" height="38" rx="19"/><rect width="80" height="80" rx="32" fill="url(#b)" fill-rule="nonzero"/><path d="M34.058 28.174l.136.007c.271.03.53.15.73.35l.093.103c.257.323.334.757.2 1.155l-.131.409a11.84 11.84 0 00-.494 3.394l.004.3c.16 6.377 5.396 11.516 11.81 11.516l.434-.008a11.785 11.785 0 003.372-.62l.132-.036c.4-.086.828.034 1.126.332l.091.103c.255.323.335.757.2 1.153l-.11.313A14.255 14.255 0 0138.259 56l-.314-.003C30.225 55.829 24 49.497 24 41.74l.004-.332a14.251 14.251 0 019.661-13.17 1.21 1.21 0 01.393-.065zm11.054 4.174a1.149 1.149 0 01.812 1.961l-2.696 2.697h1.884a1.15 1.15 0 010 2.298h-4.658a1.149 1.149 0 01-.812-1.961l2.695-2.697h-1.883a1.15 1.15 0 010-2.298h4.658zM54.862 24a1.138 1.138 0 01.804 1.943l-4.127 4.128h3.323a1.139 1.139 0 010 2.277H48.79a1.138 1.138 0 01-.805-1.943l4.127-4.128H48.79a1.139 1.139 0 010-2.277h6.07z" fill="#FFF"/></g></svg>